<?xml version="1.0" encoding="utf-8"?>
<svg version="1.1" xmlns:xlink="http://www.w3.org/1999/xlink" width="20px" height="20px" xmlns="http://www.w3.org/2000/svg">
  <g transform="matrix(1 0 0 1 -187 -110 )">
    <path d="M 197 110  C 202.6 110  207 114.4  207 120  C 207 125.6  202.6 130  197 130  C 191.4 130  187 125.6  187 120  C 187 114.4  191.4 110  197 110  Z " fill-rule="nonzero" fill="#ffffff" stroke="none" />
    <path d="M 197 110.5  C 202.32 110.5  206.5 114.68  206.5 120  C 206.5 125.32  202.32 129.5  197 129.5  C 191.68 129.5  187.5 125.32  187.5 120  C 187.5 114.68  191.68 110.5  197 110.5  Z " stroke-width="1" stroke="#797979" fill="none" />
  </g>
</svg>